<svg width="175" height="57" viewBox="0 0 175 57" fill="none" xmlns="http://www.w3.org/2000/svg">
<path d="M34.0977 18.932C40.7333 18.932 46.731 19.8636 51.0615 21.3627C53.2275 22.1125 54.9639 22.9999 56.1543 23.974C57.3464 24.9496 57.9639 25.9883 57.9639 27.0424C57.9637 28.0963 57.3463 29.1342 56.1543 30.1097C54.964 31.0838 53.2276 31.9713 51.0615 32.7211C46.731 34.2201 40.7333 35.1517 34.0977 35.1517C27.462 35.1517 21.4643 34.2201 17.1338 32.7211C14.9675 31.9712 13.2304 31.084 12.04 30.1097C10.8482 29.1343 10.2316 28.0962 10.2314 27.0424C10.2314 25.9883 10.8479 24.9496 12.04 23.974C13.2304 22.9998 14.9674 22.1126 17.1338 21.3627C21.4643 19.8636 27.462 18.932 34.0977 18.932Z" stroke="white" stroke-width="0.463415"/>
<g filter="url(#filter0_dddddd_5_94)">
<path d="M16.71 21.5682C12.8245 23.0107 10.4539 24.9323 10.4539 27.0419C10.4539 31.5208 21.139 35.1517 34.3197 35.1517C47.5005 35.1517 58.1856 31.5208 58.1856 27.0419C58.1856 24.73 55.3386 22.644 50.7709 21.1667" stroke="white" stroke-width="0.463415"/>
</g>
<path d="M15.8747 31.9535L14.2948 29.9296L13.1007 32.3239L15.6679 32.3682L15.8747 31.9535ZM34.3197 35.1517V34.92C26.7299 34.92 19.9868 33.7124 15.6553 31.8445L15.5636 32.0572L15.4718 32.27C19.8806 34.1712 26.6919 35.3834 34.3197 35.3834V35.1517Z" fill="white"/>
<path d="M39.4172 21.0176C39.9733 24.3542 34.8603 24.5704 32.4659 24.2615V26.1038L37.3318 26.7989L40.344 26.3355L41.0391 24.7135L40.5757 20.3111C39.7261 18.9209 38.8611 17.681 39.4172 21.0176Z" fill="url(#paint0_linear_5_94)" stroke="black" stroke-width="0.231707" stroke-linecap="round"/>
<path d="M38.027 16.6899L16.9417 17.1533L19.9538 19.007L28.9904 19.9338L39.4173 20.3972L49.6124 18.3119L48.2221 17.3851L42.6612 17.1534C41.5026 16.9216 42.1977 14.2956 43.3563 13.9094C44.7465 13.446 49.6124 14.1412 49.6124 14.1412L53.3197 12.7509C54.0612 12.5656 53.4742 12.3648 53.088 12.2875C50.3075 12.1331 44.1385 11.6826 41.966 12.2875C40.1566 12.7913 38.8219 15.3778 38.027 16.6899Z" fill="url(#paint1_linear_5_94)" stroke="black" stroke-width="0.231707"/>
<circle cx="2.78323" cy="2.78323" r="2.66738" transform="matrix(1 0 -0.0220528 0.996801 33.0676 33.3729)" fill="url(#paint2_linear_5_94)" stroke="black" stroke-width="0.231707"/>
<circle cx="2.78323" cy="2.78323" r="2.66738" transform="matrix(1 0 -0.0220528 0.996801 33.8115 33.3729)" fill="#30BD99" stroke="black" stroke-width="0.231707"/>
<circle cx="0.94934" cy="0.94934" r="0.876314" transform="matrix(1 0 -0.0220528 0.996801 35.7249 35.2225)" fill="#FFB81B"/>
<circle cx="0.94934" cy="0.94934" r="0.876314" transform="matrix(1 0 -0.0220528 0.996801 35.7249 35.2225)" stroke="black" stroke-width="0.146052"/>
<circle cx="0.94934" cy="0.94934" r="0.876314" transform="matrix(1 0 -0.0220528 0.996801 35.7249 35.2225)" stroke="black" stroke-width="0.146052"/>
<circle cx="2.78323" cy="2.78323" r="2.66738" transform="matrix(1 0 -0.0220528 0.996801 25.653 35.2266)" fill="url(#paint3_linear_5_94)" stroke="black" stroke-width="0.231707"/>
<circle cx="2.78323" cy="2.78323" r="2.66738" transform="matrix(1 0 -0.0220528 0.996801 26.3969 35.2266)" fill="#30BD99" stroke="black" stroke-width="0.231707"/>
<circle cx="0.94934" cy="0.94934" r="0.876314" transform="matrix(1 0 -0.0220528 0.996801 28.3102 37.0762)" fill="#FFB81B"/>
<circle cx="0.94934" cy="0.94934" r="0.876314" transform="matrix(1 0 -0.0220528 0.996801 28.3102 37.0762)" stroke="black" stroke-width="0.146052"/>
<circle cx="0.94934" cy="0.94934" r="0.876314" transform="matrix(1 0 -0.0220528 0.996801 28.3102 37.0762)" stroke="black" stroke-width="0.146052"/>
<path d="M48.4537 25.1884C45.865 24.892 44.4671 24.5688 42.1976 23.3347L41.9659 25.8835L44.7464 26.3469L47.5269 25.8835L48.4537 25.1884Z" fill="url(#paint4_linear_5_94)" stroke="black" stroke-width="0.231707" stroke-linecap="round"/>
<path d="M41.5026 30.981C39.6489 29.4981 34.7831 30.0894 33.1611 30.5528L34.3197 34.0284H36.405L39.1855 33.7967L40.8075 32.1747C41.4254 32.4064 43.3563 32.464 41.5026 30.981Z" fill="url(#paint5_linear_5_94)" stroke="black" stroke-width="0.231707" stroke-linecap="round"/>
<path d="M46.8318 33.0663L42.4294 31.2126H42.1976L41.9659 32.8346L44.5147 33.9931H46.8318V33.0663Z" fill="#AB7601" stroke="black" stroke-width="0.231707" stroke-linecap="round"/>
<path d="M53.5505 12.5193C53.7626 12.5193 53.9371 12.6482 54.0534 12.7869C54.1739 12.9306 54.2635 13.1196 54.2995 13.3171C54.3356 13.5154 54.3213 13.7406 54.2087 13.9402C54.0932 14.145 53.8897 14.2951 53.6062 14.366C53.3409 14.4322 53.0817 14.4308 52.8552 14.4197C52.6157 14.4079 52.4332 14.3881 52.2644 14.4011C52.1078 14.4133 52.0031 14.4525 51.9226 14.533C51.8368 14.6187 51.7481 14.7822 51.6941 15.1062C51.5074 16.2259 48.5238 30.7215 47.0574 37.822L47.0573 37.8225C47.0567 37.828 47.0554 37.8334 47.0534 37.8386C46.9726 38.1217 46.8152 38.5471 46.6013 38.907C46.4945 39.0867 46.3673 39.2608 46.2204 39.3923C46.0744 39.5231 45.8896 39.6286 45.6726 39.6287C45.6064 39.6287 45.3669 39.6582 44.9665 39.7156C44.5765 39.7715 44.055 39.8509 43.445 39.9451C42.2257 40.1332 40.6525 40.3792 39.073 40.6111C37.494 40.8429 35.904 41.0603 34.6501 41.1912C34.0238 41.2565 33.4769 41.3013 33.0554 41.3142C32.8451 41.3206 32.6613 41.3194 32.5124 41.3083C32.3734 41.2981 32.2319 41.2774 32.1296 41.2263C31.9144 41.1187 31.5676 40.9935 31.1521 40.8513C30.7433 40.7115 30.2741 40.5567 29.8366 40.3962C29.4004 40.2363 28.9786 40.065 28.6638 39.8845C28.5071 39.7947 28.365 39.696 28.2595 39.5876C28.1562 39.4815 28.0624 39.339 28.0622 39.1658C28.0622 39.005 28.0361 38.8281 28.0163 38.5984C27.9978 38.3837 27.9879 38.1378 28.0388 37.9001C28.0912 37.6561 28.2084 37.4182 28.4402 37.2273C28.668 37.0397 28.9881 36.9121 29.4197 36.8503C30.2381 36.7334 31.5596 36.5616 32.7497 36.3875C33.3427 36.3007 33.8977 36.2144 34.3318 36.1355C34.5488 36.096 34.7335 36.0581 34.8767 36.0242C35.0272 35.9885 35.1115 35.9614 35.1423 35.946C35.2599 35.8872 35.291 35.8153 35.3005 35.7566C35.3021 35.7465 35.2915 35.7384 35.2816 35.7407C34.8212 35.8463 34.2082 35.9659 33.6257 36.03C33.2779 36.0683 32.934 36.0886 32.6374 36.074C32.4067 36.0626 32.1774 36.0287 31.9951 35.9477C31.9356 35.9212 31.8787 35.8933 31.8169 35.8727C28.7582 34.8536 22.7039 32.8512 21.9822 32.6707C21.9077 32.652 21.8492 32.6093 21.8083 32.573C21.7652 32.5346 21.7243 32.4877 21.6872 32.4382C21.6132 32.3392 21.5356 32.2071 21.4548 32.0525C21.2921 31.7409 21.1019 31.3063 20.8943 30.7839C20.4782 29.7372 19.9791 28.3113 19.4558 26.7439C18.4087 23.608 17.2604 19.8848 16.489 17.4548C16.4372 17.2917 16.5746 17.1308 16.7439 17.156L27.5111 18.7592C27.5737 18.7685 27.637 18.7714 27.7002 18.7678L47.1884 17.6615C47.5684 17.6399 47.8947 17.3876 48.0271 17.0308C48.313 16.2605 48.7097 15.3454 49.1736 14.5457C49.4866 14.006 49.8365 13.5081 50.2107 13.1423C50.5807 12.7807 51.005 12.5196 51.4646 12.5193H53.5505ZM45.032 35.2009L37.6169 35.9275C37.2646 35.9622 37.0301 36.2475 36.9607 36.5417C36.7442 37.4578 35.888 37.7809 35.4434 37.9868C35.4248 37.9954 35.4057 38.0022 35.3855 38.0056C35.3507 38.0114 35.3011 38.0191 35.238 38.0261C35.1121 38.0402 34.9403 38.0547 34.7361 38.071C34.3271 38.1038 33.7975 38.1403 33.2556 38.1804C32.7159 38.2204 32.1649 38.2643 31.7185 38.3113C31.4956 38.3348 31.2959 38.3597 31.1355 38.3855C31.0222 38.4037 30.9125 38.4246 30.8269 38.4509L30.7497 38.4783C30.708 38.4968 30.6237 38.5406 30.5798 38.6345C30.5221 38.7588 30.5745 38.8704 30.6199 38.9265C30.6604 38.9764 30.7133 39.0105 30.7527 39.033C30.7963 39.0579 30.8467 39.081 30.8991 39.1023C31.105 39.1857 31.4257 39.2734 31.7732 39.3601C32.4889 39.5387 33.3382 39.7152 33.7907 39.8503C33.863 39.8718 33.9537 39.8819 34.0466 39.8865C34.1443 39.8913 34.2622 39.8913 34.3952 39.8875C34.662 39.8797 35.0045 39.8563 35.4001 39.8201C36.1919 39.7475 37.2125 39.6227 38.3122 39.4705C40.5115 39.166 43.0388 38.7471 44.7029 38.3943C44.952 38.3415 45.1484 38.1564 45.2204 37.9158L45.7654 36.0916C45.9067 35.6184 45.5234 35.1531 45.032 35.2009ZM34.281 27.1169C33.6996 27.1172 33.2618 27.6464 33.3708 28.2175L34.2507 32.8132C34.3375 33.267 34.7453 33.588 35.2068 33.5652L39.2302 33.366C39.7237 33.3416 40.112 32.9343 40.112 32.4402V28.0437C40.112 27.532 39.697 27.1172 39.1853 27.1169H34.281ZM43.5818 26.9177C43.0704 26.9 42.6417 27.2999 42.6238 27.8113L42.4695 32.2214C42.4526 32.7087 42.8165 33.1258 43.3015 33.1755L45.7566 33.4275C46.2399 33.4769 46.6791 33.1443 46.7634 32.6658L47.5652 28.113C47.6628 27.5586 47.2479 27.0459 46.6853 27.0261L43.5818 26.9177ZM32.9782 20.3972C32.3689 20.3972 31.9251 20.9756 32.0827 21.5642L33.0691 25.2458C33.1808 25.6628 33.5654 25.9476 33.9968 25.9324L39.2175 25.7478C39.7163 25.7302 40.1119 25.3211 40.112 24.822V21.324C40.112 20.8123 39.6969 20.3975 39.1853 20.3972H32.9782ZM43.3552 20.3972C42.8435 20.3974 42.4285 20.8123 42.4284 21.324V24.6072C42.4284 25.1033 42.8195 25.5113 43.3152 25.533L46.9782 25.6931C47.4288 25.7126 47.8277 25.4043 47.9236 24.9636L48.6726 21.5212C48.7982 20.9435 48.3575 20.3972 47.7663 20.3972H43.3552Z" fill="url(#paint6_linear_5_94)"/>
<path d="M53.5505 12.5193L53.5505 12.4034H53.5505V12.5193ZM54.0534 12.7869L54.1422 12.7124L54.1422 12.7124L54.0534 12.7869ZM54.2995 13.3171L54.4135 13.2964L54.4135 13.2963L54.2995 13.3171ZM54.2087 13.9402L54.3096 13.9971L54.3096 13.9971L54.2087 13.9402ZM53.6062 14.366L53.6342 14.4784L53.6343 14.4784L53.6062 14.366ZM52.8552 14.4197L52.8495 14.5354L52.8495 14.5354L52.8552 14.4197ZM52.2644 14.4011L52.2555 14.2856L52.2554 14.2856L52.2644 14.4011ZM51.9226 14.533L51.8407 14.451L51.8407 14.451L51.9226 14.533ZM51.6941 15.1062L51.5798 15.0871V15.0871L51.6941 15.1062ZM47.0574 37.822L46.9434 37.7985L46.9422 37.8092L47.0574 37.822ZM47.0534 37.8386L46.9446 37.7978L46.942 37.8068L47.0534 37.8386ZM46.6013 38.907L46.7009 38.9662L46.7009 38.9662L46.6013 38.907ZM46.2204 39.3923L46.2977 39.4787L46.2977 39.4786L46.2204 39.3923ZM45.6726 39.6287L45.6725 39.5128H45.6725L45.6726 39.6287ZM44.9665 39.7156L44.9501 39.6009V39.6009L44.9665 39.7156ZM43.445 39.9451L43.4274 39.8306V39.8306L43.445 39.9451ZM39.073 40.6111L39.0898 40.7257V40.7257L39.073 40.6111ZM34.6501 41.1912L34.6621 41.3064H34.6621L34.6501 41.1912ZM33.0554 41.3142L33.0589 41.43H33.0589L33.0554 41.3142ZM32.5124 41.3083L32.5039 41.4239H32.5039L32.5124 41.3083ZM32.1296 41.2263L32.1814 41.1227L32.1814 41.1227L32.1296 41.2263ZM31.1521 40.8513L31.1896 40.7417L31.1896 40.7417L31.1521 40.8513ZM29.8366 40.3962L29.7968 40.505H29.7968L29.8366 40.3962ZM28.6638 39.8845L28.6062 39.985L28.6062 39.985L28.6638 39.8845ZM28.2595 39.5876L28.1765 39.6684L28.1765 39.6685L28.2595 39.5876ZM28.0622 39.1658L27.9464 39.1658V39.1659L28.0622 39.1658ZM28.0163 38.5984L27.9009 38.6083L27.9009 38.6083L28.0163 38.5984ZM28.0388 37.9001L27.9255 37.8758L27.9255 37.8759L28.0388 37.9001ZM28.4402 37.2273L28.3665 37.1379L28.3665 37.1379L28.4402 37.2273ZM29.4197 36.8503L29.4033 36.7357L29.4033 36.7357L29.4197 36.8503ZM32.7497 36.3875L32.7665 36.5021V36.5021L32.7497 36.3875ZM34.3318 36.1355L34.3525 36.2495H34.3525L34.3318 36.1355ZM34.8767 36.0242L34.9034 36.1369L34.9034 36.1369L34.8767 36.0242ZM35.1423 35.946L35.194 36.0497L35.1942 36.0496L35.1423 35.946ZM35.3005 35.7566L35.4149 35.7751L35.415 35.7744L35.3005 35.7566ZM33.6257 36.03L33.6384 36.1452L33.6384 36.1452L33.6257 36.03ZM32.6374 36.074L32.6317 36.1897H32.6317L32.6374 36.074ZM21.9822 32.6707L21.954 32.783L21.954 32.783L21.9822 32.6707ZM21.8083 32.573L21.7313 32.6595L21.7313 32.6595L21.8083 32.573ZM21.6872 32.4382L21.5944 32.5076L21.5945 32.5077L21.6872 32.4382ZM21.4548 32.0525L21.3521 32.1061L21.3521 32.1061L21.4548 32.0525ZM20.8943 30.7839L20.7866 30.8267L20.7866 30.8267L20.8943 30.7839ZM19.4558 26.7439L19.3459 26.7806V26.7806L19.4558 26.7439ZM16.489 17.4548L16.5994 17.4198L16.5994 17.4198L16.489 17.4548ZM16.7439 17.156L16.7268 17.2706L16.7268 17.2706L16.7439 17.156ZM49.1736 14.5457L49.0733 14.4875V14.4875L49.1736 14.5457ZM50.2107 13.1423L50.1297 13.0595L50.1297 13.0595L50.2107 13.1423ZM51.4646 12.5193V12.4034L51.4645 12.4034L51.4646 12.5193ZM45.032 35.2009L45.0207 35.0856L45.0207 35.0856L45.032 35.2009ZM37.6169 35.9275L37.6056 35.8122L37.6056 35.8122L37.6169 35.9275ZM36.9607 36.5417L37.0734 36.5684L37.0734 36.5684L36.9607 36.5417ZM35.3855 38.0056L35.4044 38.1199L35.4045 38.1199L35.3855 38.0056ZM35.238 38.0261L35.2508 38.1413L35.2509 38.1413L35.238 38.0261ZM34.7361 38.071L34.7453 38.1865V38.1865L34.7361 38.071ZM33.2556 38.1804L33.247 38.0649V38.0649L33.2556 38.1804ZM31.7185 38.3113L31.7063 38.1961H31.7063L31.7185 38.3113ZM31.1355 38.3855L31.1171 38.2711L31.1171 38.2711L31.1355 38.3855ZM30.8269 38.4509L30.7928 38.3401L30.7882 38.3417L30.8269 38.4509ZM30.7497 38.4783L30.7109 38.3687L30.7026 38.3724L30.7497 38.4783ZM30.5798 38.6345L30.4749 38.5855L30.4747 38.5857L30.5798 38.6345ZM30.6199 38.9265L30.5297 38.9993L30.5299 38.9995L30.6199 38.9265ZM30.7527 39.033L30.6952 39.1336L30.6952 39.1336L30.7527 39.033ZM30.8991 39.1023L30.8556 39.2097L30.8556 39.2097L30.8991 39.1023ZM31.7732 39.3601L31.7451 39.4725H31.7451L31.7732 39.3601ZM33.7907 39.8503L33.7576 39.9614L33.7577 39.9614L33.7907 39.8503ZM34.0466 39.8865L34.0409 40.0022H34.0409L34.0466 39.8865ZM34.3952 39.8875L34.3986 40.0033H34.3986L34.3952 39.8875ZM35.4001 39.8201L35.4107 39.9354H35.4107L35.4001 39.8201ZM38.3122 39.4705L38.3281 39.5852V39.5852L38.3122 39.4705ZM44.7029 38.3943L44.7269 38.5076H44.7269L44.7029 38.3943ZM45.2204 37.9158L45.3314 37.949L45.3314 37.9489L45.2204 37.9158ZM45.7654 36.0916L45.8764 36.1247L45.8764 36.1247L45.7654 36.0916ZM34.281 27.1169V27.0011H34.2809L34.281 27.1169ZM33.3708 28.2175L33.257 28.2393L33.257 28.2393L33.3708 28.2175ZM34.2507 32.8132L34.3645 32.7915L34.3645 32.7914L34.2507 32.8132ZM35.2068 33.5652L35.2125 33.6809L35.2125 33.6809L35.2068 33.5652ZM39.2302 33.366L39.2245 33.2503L39.2245 33.2503L39.2302 33.366ZM39.1853 27.1169L39.1853 27.0011H39.1853V27.1169ZM43.5818 26.9177L43.5858 26.8019L43.5858 26.8019L43.5818 26.9177ZM42.6238 27.8113L42.508 27.8072V27.8072L42.6238 27.8113ZM42.4695 32.2214L42.3537 32.2174L42.3537 32.2174L42.4695 32.2214ZM43.3015 33.1755L43.3133 33.0603L43.3133 33.0603L43.3015 33.1755ZM45.7566 33.4275L45.7447 33.5427L45.7448 33.5427L45.7566 33.4275ZM46.7634 32.6658L46.6493 32.6457V32.6457L46.7634 32.6658ZM47.5652 28.113L47.6793 28.1331V28.1331L47.5652 28.113ZM46.6853 27.0261L46.6894 26.9103L46.6893 26.9103L46.6853 27.0261ZM32.0827 21.5642L31.9708 21.5942L31.9708 21.5942L32.0827 21.5642ZM33.0691 25.2458L32.9572 25.2758V25.2758L33.0691 25.2458ZM33.9968 25.9324L34.0009 26.0482H34.0009L33.9968 25.9324ZM39.2175 25.7478L39.2134 25.632H39.2134L39.2175 25.7478ZM40.112 24.822L40.2279 24.8221V24.822H40.112ZM40.112 21.324H40.2279V21.324L40.112 21.324ZM39.1853 20.3972L39.1853 20.2814H39.1853V20.3972ZM43.3552 20.3972V20.2814H43.3552L43.3552 20.3972ZM42.4284 21.324L42.3126 21.324V21.324H42.4284ZM43.3152 25.533L43.3202 25.4172L43.3202 25.4172L43.3152 25.533ZM46.9782 25.6931L46.9732 25.8089L46.9733 25.8089L46.9782 25.6931ZM47.9236 24.9636L47.8104 24.939L47.8104 24.939L47.9236 24.9636ZM48.6726 21.5212L48.7858 21.5459L48.7858 21.5459L48.6726 21.5212ZM35.4434 37.9868L35.4921 38.0919L35.4434 37.9868ZM35.2816 35.7407L35.3075 35.8536L35.2816 35.7407ZM27.5111 18.7592L27.5282 18.6446L27.5111 18.7592ZM27.7002 18.7678L27.7067 18.8835L27.7002 18.7678ZM48.0271 17.0308L47.9185 16.9905V16.9905L48.0271 17.0308ZM31.9951 35.9477L32.0421 35.8418L31.9951 35.9477ZM31.8169 35.8727L31.8535 35.7628L31.8169 35.8727ZM47.0573 37.8225L46.9422 37.8097L47.0573 37.8225ZM53.5505 12.5193L53.5505 12.6351C53.714 12.6352 53.8591 12.7355 53.9647 12.8613L54.0534 12.7869L54.1422 12.7124C54.015 12.5608 53.8111 12.4035 53.5505 12.4034L53.5505 12.5193ZM54.0534 12.7869L53.9647 12.8613C54.072 12.9893 54.1531 13.1597 54.1856 13.3379L54.2995 13.3171L54.4135 13.2963C54.3739 13.0794 54.2759 12.8718 54.1422 12.7124L54.0534 12.7869ZM54.2995 13.3171L54.1856 13.3379C54.2181 13.5169 54.2038 13.7131 54.1078 13.8833L54.2087 13.9402L54.3096 13.9971C54.4388 13.7681 54.453 13.5138 54.4135 13.2964L54.2995 13.3171ZM54.2087 13.9402L54.1078 13.8832C54.0103 14.056 53.8359 14.1891 53.5781 14.2536L53.6062 14.366L53.6343 14.4784C53.9435 14.4011 54.176 14.2339 54.3096 13.9971L54.2087 13.9402ZM53.6062 14.366L53.5781 14.2536C53.3297 14.3156 53.0843 14.3149 52.8609 14.304L52.8552 14.4197L52.8495 14.5354C53.0791 14.5467 53.352 14.5488 53.6342 14.4784L53.6062 14.366ZM52.8552 14.4197L52.8609 14.304C52.6313 14.2927 52.434 14.2719 52.2555 14.2856L52.2644 14.4011L52.2733 14.5166C52.4323 14.5044 52.6002 14.5231 52.8495 14.5354L52.8552 14.4197ZM52.2644 14.4011L52.2554 14.2856C52.083 14.299 51.9477 14.3441 51.8407 14.451L51.9226 14.533L52.0045 14.6149C52.0586 14.5609 52.1327 14.5275 52.2733 14.5166L52.2644 14.4011ZM51.9226 14.533L51.8407 14.451C51.7308 14.5609 51.6358 14.7515 51.5798 15.0871L51.6941 15.1062L51.8083 15.1253C51.8604 14.8129 51.9428 14.6766 52.0045 14.6149L51.9226 14.533ZM51.6941 15.1062L51.5798 15.0871C51.3936 16.2039 48.4108 30.6957 46.9439 37.7986L47.0574 37.822L47.1708 37.8455C48.6367 30.7474 51.6212 16.2479 51.8083 15.1253L51.6941 15.1062ZM47.0574 37.822L46.9422 37.8092L46.9422 37.8097L47.0573 37.8225L47.1724 37.8353L47.1725 37.8348L47.0574 37.822ZM47.0534 37.8386L46.942 37.8068C46.863 38.0835 46.709 38.4989 46.5017 38.8478L46.6013 38.907L46.7009 38.9662C46.9213 38.5952 47.0821 38.16 47.1648 37.8705L47.0534 37.8386ZM46.6013 38.907L46.5017 38.8478C46.3981 39.0221 46.2779 39.1854 46.1431 39.306L46.2204 39.3923L46.2977 39.4786C46.4566 39.3363 46.5909 39.1513 46.7009 38.9662L46.6013 38.907ZM46.2204 39.3923L46.1432 39.306C46.0088 39.4263 45.8504 39.5127 45.6725 39.5128L45.6726 39.6287L45.6726 39.7445C45.9288 39.7444 46.14 39.6198 46.2977 39.4787L46.2204 39.3923ZM45.6726 39.6287L45.6725 39.5128C45.6309 39.5129 45.5468 39.5214 45.4307 39.5356C45.3114 39.5503 45.1506 39.5721 44.9501 39.6009L44.9665 39.7156L44.983 39.8303C45.1828 39.8016 45.3419 39.78 45.459 39.7656C45.5794 39.7508 45.6481 39.7445 45.6727 39.7445L45.6726 39.6287ZM44.9665 39.7156L44.9501 39.6009C44.5594 39.6569 44.0373 39.7365 43.4274 39.8306L43.445 39.9451L43.4627 40.0596C44.0727 39.9654 44.5936 39.8861 44.983 39.8303L44.9665 39.7156ZM43.445 39.9451L43.4274 39.8306C42.2077 40.0188 40.6351 40.2647 39.0562 40.4965L39.073 40.6111L39.0898 40.7257C40.6699 40.4938 42.2437 40.2477 43.4627 40.0596L43.445 39.9451ZM39.073 40.6111L39.0562 40.4965C37.4775 40.7282 35.8895 40.9454 34.6381 41.0759L34.6501 41.1912L34.6621 41.3064C35.9186 41.1753 37.5105 40.9575 39.0898 40.7257L39.073 40.6111ZM34.6501 41.1912L34.6381 41.0759C34.0127 41.1412 33.469 41.1856 33.0518 41.1984L33.0554 41.3142L33.0589 41.43C33.4847 41.417 34.0349 41.3718 34.6621 41.3064L34.6501 41.1912ZM33.0554 41.3142L33.0518 41.1984C32.8436 41.2048 32.6642 41.2034 32.521 41.1928L32.5124 41.3083L32.5039 41.4239C32.6584 41.4353 32.8467 41.4365 33.0589 41.43L33.0554 41.3142ZM32.5124 41.3083L32.521 41.1928C32.3829 41.1826 32.2616 41.1628 32.1814 41.1227L32.1296 41.2263L32.0778 41.3299C32.2021 41.3921 32.3639 41.4135 32.5039 41.4239L32.5124 41.3083ZM32.1296 41.2263L32.1814 41.1227C31.9579 41.011 31.6034 40.8833 31.1896 40.7417L31.1521 40.8513L31.1146 40.9609C31.5317 41.1036 31.8708 41.2265 32.0778 41.33L32.1296 41.2263ZM31.1521 40.8513L31.1896 40.7417C30.7791 40.6013 30.3124 40.4473 29.8765 40.2875L29.8366 40.3962L29.7968 40.505C30.2358 40.666 30.7075 40.8217 31.1146 40.9609L31.1521 40.8513ZM29.8366 40.3962L29.8765 40.2875C29.441 40.1278 29.0271 39.9592 28.7214 39.784L28.6638 39.8845L28.6062 39.985C28.9301 40.1707 29.3598 40.3448 29.7968 40.505L29.8366 40.3962ZM28.6638 39.8845L28.7214 39.784C28.5691 39.6967 28.4373 39.6042 28.3425 39.5068L28.2595 39.5876L28.1765 39.6685C28.2927 39.7877 28.4452 39.8927 28.6062 39.985L28.6638 39.8845ZM28.2595 39.5876L28.3425 39.5068C28.2486 39.4104 28.1782 39.2955 28.1781 39.1657L28.0622 39.1658L27.9464 39.1659C27.9466 39.3825 28.0637 39.5526 28.1765 39.6684L28.2595 39.5876ZM28.0622 39.1658L28.1781 39.1658C28.1781 38.9985 28.1507 38.8081 28.1318 38.5884L28.0163 38.5984L27.9009 38.6083C27.9216 38.848 27.9464 39.0114 27.9464 39.1658L28.0622 39.1658ZM28.0163 38.5984L28.1318 38.5884C28.1135 38.3762 28.1049 38.1446 28.1521 37.9244L28.0388 37.9001L27.9255 37.8759C27.8708 38.1311 27.8822 38.3911 27.9009 38.6083L28.0163 38.5984ZM28.0388 37.9001L28.1521 37.9244C28.2 37.7012 28.3057 37.4882 28.5138 37.3167L28.4402 37.2273L28.3665 37.1379C28.1111 37.3483 27.9823 37.6111 27.9255 37.8758L28.0388 37.9001ZM28.4402 37.2273L28.5138 37.3167C28.7201 37.1469 29.0178 37.0248 29.4361 36.965L29.4197 36.8503L29.4033 36.7357C28.9584 36.7993 28.6159 36.9325 28.3665 37.1379L28.4402 37.2273ZM29.4197 36.8503L29.436 36.965C30.2505 36.8487 31.5779 36.676 32.7665 36.5021L32.7497 36.3875L32.733 36.2728C31.5413 36.4472 30.2257 36.6182 29.4033 36.7357L29.4197 36.8503ZM32.7497 36.3875L32.7665 36.5021C33.3598 36.4153 33.9164 36.3288 34.3525 36.2495L34.3318 36.1355L34.311 36.0215C33.879 36.1001 33.3256 36.1861 32.733 36.2728L32.7497 36.3875ZM34.3318 36.1355L34.3525 36.2495C34.5708 36.2098 34.7577 36.1715 34.9034 36.1369L34.8767 36.0242L34.85 35.9114C34.7094 35.9448 34.5268 35.9823 34.311 36.0215L34.3318 36.1355ZM34.8767 36.0242L34.9034 36.1369C35.0521 36.1016 35.1494 36.072 35.194 36.0497L35.1423 35.946L35.0906 35.8424C35.0736 35.8509 35.0023 35.8753 34.85 35.9114L34.8767 36.0242ZM35.1423 35.946L35.1942 36.0496C35.2664 36.0135 35.3193 35.9696 35.3558 35.9192C35.3925 35.8685 35.408 35.8176 35.4149 35.7751L35.3005 35.7566L35.1861 35.7381C35.1835 35.7542 35.1787 35.7687 35.1681 35.7833C35.1573 35.7982 35.1358 35.8198 35.0904 35.8425L35.1423 35.946ZM35.2816 35.7407L35.2557 35.6277C34.7979 35.7327 34.1896 35.8514 33.613 35.9149L33.6257 36.03L33.6384 36.1452C34.2269 36.0804 34.8445 35.9598 35.3075 35.8536L35.2816 35.7407ZM33.6257 36.03L33.613 35.9149C33.2682 35.9528 32.9311 35.9724 32.6431 35.9583L32.6374 36.074L32.6317 36.1897C32.9369 36.2047 33.2875 36.1838 33.6384 36.1452L33.6257 36.03ZM32.6374 36.074L32.6431 35.9583C32.4174 35.9471 32.205 35.9142 32.0421 35.8418L31.9951 35.9477L31.9481 36.0536C32.1498 36.1432 32.396 36.1781 32.6317 36.1897L32.6374 36.074ZM31.8169 35.8727L31.8535 35.7628C28.799 34.745 22.7377 32.7402 22.0103 32.5583L21.9822 32.6707L21.954 32.783C22.6701 32.9621 28.7174 34.9621 31.7803 35.9826L31.8169 35.8727ZM21.9822 32.6707L22.0103 32.5583C21.9617 32.5461 21.9197 32.517 21.8853 32.4865L21.8083 32.573L21.7313 32.6595C21.7786 32.7016 21.8536 32.7579 21.954 32.783L21.9822 32.6707ZM21.8083 32.573L21.8854 32.4865C21.8496 32.4546 21.8138 32.414 21.78 32.3688L21.6872 32.4382L21.5945 32.5077C21.6347 32.5614 21.6808 32.6146 21.7313 32.6595L21.8083 32.573ZM21.6872 32.4382L21.78 32.3689C21.7115 32.2772 21.6372 32.1515 21.5575 31.9989L21.4548 32.0525L21.3521 32.1061C21.434 32.2628 21.5149 32.4012 21.5944 32.5076L21.6872 32.4382ZM21.4548 32.0525L21.5575 31.9989C21.3976 31.6925 21.2091 31.2623 21.0019 30.7411L20.8943 30.7839L20.7866 30.8267C20.9948 31.3504 21.1867 31.7893 21.3521 32.1061L21.4548 32.0525ZM20.8943 30.7839L21.0019 30.7411C20.5871 29.6976 20.0889 28.2742 19.5657 26.7072L19.4558 26.7439L19.3459 26.7806C19.8694 28.3484 20.3693 29.7769 20.7866 30.8267L20.8943 30.7839ZM19.4558 26.7439L19.5657 26.7072C18.519 23.5723 17.3713 19.8512 16.5994 17.4198L16.489 17.4548L16.3786 17.4899C17.1495 19.9184 18.2985 23.6436 19.3459 26.7806L19.4558 26.7439ZM16.7439 17.156L16.7268 17.2706L27.4941 18.8738L27.5111 18.7592L27.5282 18.6446L16.7609 17.0414L16.7439 17.156ZM27.7002 18.7678L27.7067 18.8835L47.195 17.7771L47.1884 17.6615L47.1819 17.5458L27.6936 18.6521L27.7002 18.7678ZM48.0271 17.0308L48.1357 17.0711C48.4201 16.3047 48.8143 15.396 49.2738 14.6038L49.1736 14.5457L49.0733 14.4875C48.6052 15.2947 48.2058 16.2163 47.9185 16.9905L48.0271 17.0308ZM49.1736 14.5457L49.2738 14.6038C49.5842 14.0686 49.9281 13.5806 50.2917 13.2252L50.2107 13.1423L50.1297 13.0595C49.745 13.4355 49.3889 13.9435 49.0733 14.4875L49.1736 14.5457ZM50.2107 13.1423L50.2916 13.2252C50.6531 12.872 51.0496 12.6354 51.4646 12.6351L51.4646 12.5193L51.4645 12.4034C50.9604 12.4037 50.5083 12.6894 50.1297 13.0595L50.2107 13.1423ZM51.4646 12.5193V12.6351H53.5505V12.5193V12.4034H51.4646V12.5193ZM45.032 35.2009L45.0207 35.0856L37.6056 35.8122L37.6169 35.9275L37.6282 36.0428L45.0433 35.3162L45.032 35.2009ZM37.6169 35.9275L37.6056 35.8122C37.1911 35.853 36.9254 36.1866 36.8479 36.5151L36.9607 36.5417L37.0734 36.5684C37.1348 36.3084 37.3381 36.0713 37.6283 36.0428L37.6169 35.9275ZM36.9607 36.5417L36.8479 36.5151C36.6468 37.3662 35.8546 37.6687 35.3947 37.8817L35.4434 37.9868L35.4921 38.0919C35.9213 37.8931 36.8416 37.5494 37.0734 36.5684L36.9607 36.5417ZM35.3855 38.0056L35.3666 37.8913C35.333 37.8969 35.2855 37.9043 35.2252 37.911L35.238 38.0261L35.2509 38.1413C35.3166 38.1339 35.3684 38.1259 35.4044 38.1199L35.3855 38.0056ZM35.238 38.0261L35.2252 37.911C35.1013 37.9248 34.9313 37.9392 34.7268 37.9556L34.7361 38.071L34.7453 38.1865C34.9494 38.1702 35.1229 38.1555 35.2508 38.1413L35.238 38.0261ZM34.7361 38.071L34.7268 37.9556C34.3183 37.9882 33.7899 38.0246 33.247 38.0649L33.2556 38.1804L33.2642 38.296C33.8051 38.2559 34.336 38.2193 34.7453 38.1865L34.7361 38.071ZM33.2556 38.1804L33.247 38.0649C32.7072 38.1049 32.1547 38.1488 31.7063 38.1961L31.7185 38.3113L31.7306 38.4265C32.1751 38.3797 32.7245 38.336 33.2642 38.296L33.2556 38.1804ZM31.7185 38.3113L31.7063 38.1961C31.4825 38.2196 31.2804 38.2449 31.1171 38.2711L31.1355 38.3855L31.1539 38.4999C31.3114 38.4746 31.5088 38.4499 31.7306 38.4265L31.7185 38.3113ZM31.1355 38.3855L31.1171 38.2711C31.0031 38.2894 30.8867 38.3113 30.7928 38.3402L30.8269 38.4509L30.861 38.5617C30.9384 38.5378 31.0413 38.518 31.1539 38.4999L31.1355 38.3855ZM30.8269 38.4509L30.7882 38.3417L30.711 38.3691L30.7497 38.4783L30.7884 38.5875L30.8656 38.5601L30.8269 38.4509ZM30.7497 38.4783L30.7026 38.3724C30.6543 38.3939 30.5371 38.4524 30.4749 38.5855L30.5798 38.6345L30.6848 38.6836C30.7103 38.6289 30.7617 38.5997 30.7968 38.5841L30.7497 38.4783ZM30.5798 38.6345L30.4747 38.5857C30.3912 38.7656 30.4693 38.9246 30.5297 38.9993L30.6199 38.9265L30.71 38.8537C30.6797 38.8162 30.653 38.752 30.6849 38.6833L30.5798 38.6345ZM30.6199 38.9265L30.5299 38.9995C30.5842 39.0664 30.6522 39.109 30.6952 39.1336L30.7527 39.033L30.8101 38.9324C30.7743 38.9119 30.7366 38.8865 30.7098 38.8535L30.6199 38.9265ZM30.7527 39.033L30.6952 39.1336C30.7449 39.1619 30.8004 39.1873 30.8556 39.2097L30.8991 39.1023L30.9427 38.9949C30.893 38.9748 30.8477 38.9538 30.8101 38.9324L30.7527 39.033ZM30.8991 39.1023L30.8556 39.2097C31.0701 39.2966 31.3986 39.386 31.7451 39.4725L31.7732 39.3601L31.8012 39.2477C31.4528 39.1607 31.1398 39.0748 30.9427 38.9949L30.8991 39.1023ZM31.7732 39.3601L31.7451 39.4725C32.47 39.6534 33.3076 39.827 33.7576 39.9613L33.7907 39.8503L33.8239 39.7393C33.3688 39.6034 32.5079 39.4241 31.8012 39.2477L31.7732 39.3601ZM33.7907 39.8503L33.7577 39.9614C33.8435 39.9869 33.9453 39.9975 34.0409 40.0022L34.0466 39.8865L34.0523 39.7708C33.9621 39.7663 33.8825 39.7568 33.8238 39.7393L33.7907 39.8503ZM34.0466 39.8865L34.0409 40.0022C34.1427 40.0072 34.2639 40.0072 34.3986 40.0033L34.3952 39.8875L34.3919 39.7716C34.2605 39.7755 34.1459 39.7754 34.0523 39.7708L34.0466 39.8865ZM34.3952 39.8875L34.3986 40.0033C34.6687 39.9954 35.0139 39.9718 35.4107 39.9354L35.4001 39.8201L35.3895 39.7047C34.9951 39.7409 34.6553 39.764 34.3919 39.7716L34.3952 39.8875ZM35.4001 39.8201L35.4107 39.9354C36.205 39.8626 37.2276 39.7376 38.3281 39.5852L38.3122 39.4705L38.2963 39.3557C37.1975 39.5078 36.1788 39.6323 35.3895 39.7047L35.4001 39.8201ZM38.3122 39.4705L38.3281 39.5852C40.529 39.2805 43.0592 38.8612 44.7269 38.5076L44.7029 38.3943L44.6788 38.281C43.0184 38.6329 40.4941 39.0514 38.2963 39.3557L38.3122 39.4705ZM44.7029 38.3943L44.7269 38.5076C45.0183 38.4458 45.2475 38.2295 45.3314 37.949L45.2204 37.9158L45.1094 37.8826C45.0494 38.0834 44.8858 38.2371 44.6788 38.281L44.7029 38.3943ZM45.2204 37.9158L45.3314 37.9489L45.8764 36.1247L45.7654 36.0916L45.6544 36.0584L45.1094 37.8826L45.2204 37.9158ZM45.7654 36.0916L45.8764 36.1247C46.0412 35.5727 45.594 35.0298 45.0207 35.0856L45.032 35.2009L45.0432 35.3162C45.4527 35.2763 45.7721 35.6641 45.6543 36.0584L45.7654 36.0916ZM34.281 27.1169L34.2809 27.0011C33.6269 27.0014 33.1343 27.5967 33.257 28.2393L33.3708 28.2175L33.4846 28.1958C33.3892 27.6961 33.7723 27.233 34.281 27.2328L34.281 27.1169ZM33.3708 28.2175L33.257 28.2393L34.1369 32.835L34.2507 32.8132L34.3645 32.7914L33.4846 28.1957L33.3708 28.2175ZM34.2507 32.8132L34.1369 32.835C34.2346 33.3454 34.6933 33.7065 35.2125 33.6809L35.2068 33.5652L35.201 33.4495C34.7974 33.4694 34.4405 33.1886 34.3645 32.7915L34.2507 32.8132ZM35.2068 33.5652L35.2125 33.6809L39.2359 33.4817L39.2302 33.366L39.2245 33.2503L35.201 33.4495L35.2068 33.5652ZM39.2302 33.366L39.2359 33.4817C39.791 33.4543 40.2279 32.9962 40.2279 32.4402H40.112H39.9962C39.9962 32.8724 39.6564 33.2289 39.2245 33.2503L39.2302 33.366ZM40.112 32.4402H40.2279V28.0437H40.112H39.9962V32.4402H40.112ZM40.112 28.0437H40.2279C40.2279 27.4679 39.7609 27.0014 39.1853 27.0011L39.1853 27.1169L39.1852 27.2328C39.633 27.233 39.9962 27.596 39.9962 28.0437H40.112ZM39.1853 27.1169V27.0011H34.281V27.1169V27.2328H39.1853V27.1169ZM43.5818 26.9177L43.5858 26.8019C43.0105 26.782 42.5281 27.2319 42.508 27.8072L42.6238 27.8113L42.7395 27.8153C42.7552 27.3679 43.1303 27.018 43.5778 27.0335L43.5818 26.9177ZM42.6238 27.8113L42.508 27.8072L42.3537 32.2174L42.4695 32.2214L42.5852 32.2255L42.7395 27.8153L42.6238 27.8113ZM42.4695 32.2214L42.3537 32.2174C42.3347 32.7656 42.744 33.2348 43.2897 33.2908L43.3015 33.1755L43.3133 33.0603C42.8889 33.0168 42.5705 32.6517 42.5852 32.2254L42.4695 32.2214ZM43.3015 33.1755L43.2897 33.2908L45.7447 33.5427L45.7566 33.4275L45.7684 33.3122L43.3133 33.0603L43.3015 33.1755ZM45.7566 33.4275L45.7448 33.5427C46.2886 33.5984 46.7827 33.2241 46.8775 32.6859L46.7634 32.6658L46.6493 32.6457C46.5756 33.0645 46.1912 33.3555 45.7684 33.3122L45.7566 33.4275ZM46.7634 32.6658L46.8775 32.6859L47.6793 28.1331L47.5652 28.113L47.4511 28.0929L46.6493 32.6457L46.7634 32.6658ZM47.5652 28.113L47.6793 28.1331C47.7891 27.5094 47.3223 26.9326 46.6894 26.9103L46.6853 27.0261L46.6812 27.1419C47.1734 27.1592 47.5365 27.6078 47.4511 28.0929L47.5652 28.113ZM46.6853 27.0261L46.6893 26.9103L43.5858 26.8019L43.5818 26.9177L43.5777 27.0335L46.6812 27.1419L46.6853 27.0261ZM32.9782 20.3972V20.2814C32.2927 20.2814 31.7935 20.932 31.9708 21.5942L32.0827 21.5642L32.1946 21.5342C32.0567 21.0192 32.445 20.5131 32.9782 20.5131V20.3972ZM32.0827 21.5642L31.9708 21.5942L32.9572 25.2758L33.0691 25.2458L33.181 25.2159L32.1946 21.5342L32.0827 21.5642ZM33.0691 25.2458L32.9572 25.2758C33.0828 25.7448 33.5155 26.0652 34.0009 26.0482L33.9968 25.9324L33.9927 25.8166C33.6153 25.8299 33.2787 25.5807 33.181 25.2159L33.0691 25.2458ZM33.9968 25.9324L34.0009 26.0482L39.2216 25.8636L39.2175 25.7478L39.2134 25.632L33.9927 25.8166L33.9968 25.9324ZM39.2175 25.7478L39.2216 25.8636C39.7826 25.8438 40.2277 25.3836 40.2279 24.8221L40.112 24.822L39.9962 24.822C39.9961 25.2586 39.6499 25.6166 39.2134 25.632L39.2175 25.7478ZM40.112 24.822H40.2279V21.324H40.112H39.9962V24.822H40.112ZM40.112 21.324L40.2279 21.324C40.2278 20.7483 39.7609 20.2816 39.1853 20.2814L39.1853 20.3972L39.1852 20.5131C39.6329 20.5133 39.9961 20.8763 39.9962 21.324L40.112 21.324ZM39.1853 20.3972V20.2814H32.9782V20.3972V20.5131H39.1853V20.3972ZM43.3552 20.3972L43.3552 20.2814C42.7796 20.2816 42.3127 20.7483 42.3126 21.324L42.4284 21.324L42.5443 21.324C42.5444 20.8763 42.9075 20.5132 43.3552 20.5131L43.3552 20.3972ZM42.4284 21.324H42.3126V24.6072H42.4284H42.5443V21.324H42.4284ZM42.4284 24.6072H42.3126C42.3126 25.1654 42.7526 25.6244 43.3101 25.6487L43.3152 25.533L43.3202 25.4172C42.8864 25.3983 42.5443 25.0412 42.5443 24.6072H42.4284ZM43.3152 25.533L43.3101 25.6487L46.9732 25.8089L46.9782 25.6931L46.9833 25.5774L43.3202 25.4172L43.3152 25.533ZM46.9782 25.6931L46.9733 25.8089C47.4803 25.8307 47.929 25.4839 48.0368 24.9882L47.9236 24.9636L47.8104 24.939C47.7264 25.3247 47.3773 25.5944 46.9832 25.5774L46.9782 25.6931ZM47.9236 24.9636L48.0368 24.9883L48.7858 21.5459L48.6726 21.5212L48.5594 21.4966L47.8104 24.939L47.9236 24.9636ZM48.6726 21.5212L48.7858 21.5459C48.9271 20.8959 48.4314 20.2814 47.7663 20.2814V20.3972V20.5131C48.2837 20.5131 48.6693 20.9912 48.5594 21.4966L48.6726 21.5212ZM47.7663 20.3972V20.2814H43.3552V20.3972V20.5131H47.7663V20.3972ZM35.4434 37.9868L35.3947 37.8817C35.3824 37.8874 35.3734 37.8902 35.3664 37.8913L35.3855 38.0056L35.4045 38.1199C35.438 38.1143 35.4673 38.1034 35.4921 38.0919L35.4434 37.9868ZM35.3005 35.7566L35.415 35.7744C35.4232 35.7215 35.398 35.6783 35.3686 35.6542C35.3399 35.6309 35.2988 35.6179 35.2557 35.6277L35.2816 35.7407L35.3075 35.8536C35.2743 35.8612 35.2434 35.8511 35.2221 35.8338C35.2 35.8158 35.1794 35.7816 35.186 35.7388L35.3005 35.7566ZM16.489 17.4548L16.5994 17.4198C16.5736 17.3386 16.642 17.258 16.7268 17.2706L16.7439 17.156L16.7609 17.0414C16.5071 17.0036 16.3007 17.2449 16.3786 17.4899L16.489 17.4548ZM27.5111 18.7592L27.4941 18.8738C27.5644 18.8843 27.6357 18.8875 27.7067 18.8835L27.7002 18.7678L27.6936 18.6521C27.6383 18.6553 27.5829 18.6527 27.5282 18.6446L27.5111 18.7592ZM47.1884 17.6615L47.195 17.7771C47.6232 17.7528 47.9881 17.4689 48.1357 17.0711L48.0271 17.0308L47.9185 16.9905C47.8013 17.3063 47.5136 17.527 47.1819 17.5458L47.1884 17.6615ZM31.9951 35.9477L32.0421 35.8418C31.9879 35.8177 31.9223 35.7858 31.8535 35.7628L31.8169 35.8727L31.7803 35.9826C31.835 36.0009 31.8832 36.0248 31.9481 36.0536L31.9951 35.9477ZM47.0573 37.8225L46.9422 37.8097C46.9426 37.8057 46.9435 37.8017 46.945 37.7979L47.0534 37.8386L47.1619 37.8793C47.1672 37.8651 47.1708 37.8504 47.1724 37.8353L47.0573 37.8225Z" fill="black"/>
<circle cx="20.1855" cy="23.6412" r="4.05488" fill="white" stroke="black" stroke-width="0.231707"/>
<circle cx="27.6002" cy="24.1046" r="4.05488" fill="white" stroke="black" stroke-width="0.231707"/>
<path d="M30.6123 22.7375C30.6123 23.3147 30.3948 23.8706 30.0031 24.2944C29.6113 24.7183 29.0742 24.9789 28.4989 25.0243C27.9235 25.0697 27.3522 24.8965 26.8988 24.5394C26.4455 24.1822 26.1434 23.6673 26.0529 23.0973C25.9624 22.5272 26.0901 21.9441 26.4105 21.464C26.7309 20.984 27.2205 20.6424 27.7816 20.5073C28.3427 20.3722 28.9341 20.4536 29.4379 20.7353C29.9416 21.017 30.3207 21.4782 30.4995 22.0269L28.3184 22.7375H30.6123Z" fill="black"/>
<path d="M22.9196 22.2277C22.9196 22.8049 22.702 23.3608 22.3103 23.7847C21.9186 24.2085 21.3815 24.4691 20.8061 24.5145C20.2308 24.5599 19.6594 24.3868 19.2061 24.0296C18.7527 23.6724 18.4507 23.1575 18.3602 22.5875C18.2697 22.0175 18.3973 21.4343 18.7177 20.9543C19.0382 20.4742 19.5277 20.1326 20.0889 19.9975C20.65 19.8625 21.2414 19.9439 21.7451 20.2255C22.2489 20.5072 22.628 20.9684 22.8068 21.5171L20.6257 22.2277H22.9196Z" fill="black"/>
<path d="M22.7343 29.8973C23.8928 30.7469 26.7196 31.9364 28.7586 29.8973" stroke="black" stroke-width="0.463415" stroke-linecap="round"/>
<circle cx="2.78323" cy="2.78323" r="2.66738" transform="matrix(1 0 -0.0220528 0.996801 33.6245 38.4705)" fill="url(#paint7_linear_5_94)" stroke="black" stroke-width="0.231707"/>
<circle cx="2.78323" cy="2.78323" r="2.66738" transform="matrix(1 0 -0.0220528 0.996801 34.3684 38.4705)" fill="#30BD99" stroke="black" stroke-width="0.231707"/>
<circle cx="0.94934" cy="0.94934" r="0.876314" transform="matrix(1 0 -0.0220528 0.996801 36.2817 40.3201)" fill="#FFB81B"/>
<circle cx="0.94934" cy="0.94934" r="0.876314" transform="matrix(1 0 -0.0220528 0.996801 36.2817 40.3201)" stroke="black" stroke-width="0.146052"/>
<circle cx="0.94934" cy="0.94934" r="0.876314" transform="matrix(1 0 -0.0220528 0.996801 36.2817 40.3201)" stroke="black" stroke-width="0.146052"/>
<circle cx="2.78323" cy="2.78323" r="2.66738" transform="matrix(1 0 -0.0220528 0.996801 42.4294 37.5436)" fill="url(#paint8_linear_5_94)" stroke="black" stroke-width="0.231707"/>
<circle cx="2.78323" cy="2.78323" r="2.66738" transform="matrix(1 0 -0.0220528 0.996801 43.1733 37.5436)" fill="#30BD99" stroke="black" stroke-width="0.231707"/>
<circle cx="0.94934" cy="0.94934" r="0.876314" transform="matrix(1 0 -0.0220528 0.996801 45.0867 39.3932)" fill="#FFB81B"/>
<circle cx="0.94934" cy="0.94934" r="0.876314" transform="matrix(1 0 -0.0220528 0.996801 45.0867 39.3932)" stroke="black" stroke-width="0.146052"/>
<circle cx="0.94934" cy="0.94934" r="0.876314" transform="matrix(1 0 -0.0220528 0.996801 45.0867 39.3932)" stroke="black" stroke-width="0.146052"/>
<path d="M58.1856 27.042L56.1442 28.7716L58.6628 29.6746L58.1856 27.042ZM57.4817 29.0049L57.2947 28.8681C56.6782 29.7108 55.6413 30.5162 54.2392 31.2494C52.8397 31.9813 51.0909 32.6339 49.0678 33.1785C45.0217 34.2677 39.8976 34.92 34.3197 34.92V35.1517V35.3834C39.9307 35.3834 45.0962 34.7276 49.1883 33.626C51.2342 33.0752 53.0166 32.4117 54.4539 31.6601C55.8885 30.9098 56.9939 30.0641 57.6688 29.1417L57.4817 29.0049ZM34.3197 35.1517V34.92C27.7477 34.92 21.8076 34.0145 17.5186 32.5571C15.3729 31.828 13.6531 30.965 12.4745 30.018C11.2937 29.0694 10.6856 28.0622 10.6856 27.042H10.4539H10.2222C10.2222 28.2612 10.9497 29.3875 12.1842 30.3793C13.4209 31.3729 15.1963 32.2574 17.3695 32.9958C21.7182 34.4736 27.711 35.3834 34.3197 35.3834V35.1517ZM10.4539 27.042H10.6856C10.6856 26.0808 11.2249 25.1316 12.2757 24.2309C13.3255 23.3309 14.8618 22.5016 16.7906 21.7855L16.71 21.5682L16.6293 21.351C14.6726 22.0775 13.0809 22.9302 11.9741 23.879C10.8681 24.8271 10.2222 25.8935 10.2222 27.042H10.4539Z" fill="white"/>
<path d="M75.683 37.1759C74.5272 37.1759 73.4886 36.9749 72.5672 36.5728C71.6626 36.154 70.9507 35.5845 70.4314 34.8642C69.9121 34.1271 69.6441 33.2811 69.6273 32.3263H72.0647C72.1484 33.1471 72.4835 33.8423 73.0698 34.4119C73.6728 34.9647 74.5439 35.2411 75.683 35.2411C76.7719 35.2411 77.6262 34.9731 78.246 34.437C78.8826 33.8842 79.2009 33.1806 79.2009 32.3263C79.2009 31.6562 79.0166 31.1118 78.6481 30.693C78.2795 30.2742 77.8189 29.956 77.2661 29.7382C76.7132 29.5204 75.9678 29.2859 75.0297 29.0346C73.8739 28.7331 72.9441 28.4316 72.2406 28.13C71.5538 27.8285 70.9591 27.3595 70.4565 26.7229C69.9707 26.0696 69.7278 25.1985 69.7278 24.1097C69.7278 23.1548 69.9707 22.3089 70.4565 21.5718C70.9423 20.8347 71.6208 20.2652 72.4918 19.8631C73.3797 19.4611 74.3932 19.2601 75.5323 19.2601C77.1739 19.2601 78.514 19.6705 79.5526 20.4913C80.608 21.3121 81.2027 22.401 81.3367 23.7579H78.8239C78.7402 23.0878 78.3884 22.5015 77.7686 21.999C77.1488 21.4797 76.328 21.22 75.3061 21.22C74.3513 21.22 73.5723 21.4713 72.9693 21.9738C72.3662 22.4596 72.0647 23.1464 72.0647 24.0343C72.0647 24.6708 72.2406 25.1901 72.5924 25.5922C72.9609 25.9942 73.4048 26.3041 73.9241 26.5219C74.4602 26.7229 75.2056 26.9574 76.1604 27.2255C77.3163 27.5437 78.246 27.862 78.9496 28.1803C79.6532 28.4818 80.2562 28.9592 80.7588 29.6126C81.2613 30.2491 81.5126 31.1202 81.5126 32.2258C81.5126 33.0801 81.2864 33.8842 80.8341 34.638C80.3818 35.3918 79.7118 36.0033 78.8239 36.4723C77.9361 36.9414 76.8891 37.1759 75.683 37.1759ZM103.22 23.2302L98.9237 37H96.5617L93.2449 26.0696L89.9281 37H87.5661L83.2442 23.2302H85.5811L88.7471 34.7888L92.1644 23.2302H94.5013L97.8432 34.8139L100.959 23.2302H103.22ZM104.635 30.0648C104.635 28.6577 104.92 27.4265 105.49 26.3711C106.059 25.299 106.838 24.4698 107.827 23.8835C108.832 23.2972 109.946 23.0041 111.169 23.0041C112.375 23.0041 113.422 23.2637 114.309 23.783C115.197 24.3023 115.859 24.9556 116.295 25.7429V23.2302H118.606V37H116.295V34.437C115.842 35.2411 115.164 35.9111 114.259 36.4472C113.371 36.9665 112.333 37.2261 111.143 37.2261C109.921 37.2261 108.815 36.9246 107.827 36.3216C106.838 35.7185 106.059 34.8725 105.49 33.7837C104.92 32.6948 104.635 31.4552 104.635 30.0648ZM116.295 30.09C116.295 29.0514 116.085 28.1468 115.666 27.3762C115.248 26.6056 114.678 26.0193 113.958 25.6173C113.254 25.1985 112.475 24.9891 111.621 24.9891C110.767 24.9891 109.988 25.1901 109.284 25.5922C108.58 25.9942 108.019 26.5805 107.6 27.3511C107.182 28.1217 106.972 29.0262 106.972 30.0648C106.972 31.1202 107.182 32.0415 107.6 32.8289C108.019 33.5994 108.58 34.1941 109.284 34.6129C109.988 35.0149 110.767 35.216 111.621 35.216C112.475 35.216 113.254 35.0149 113.958 34.6129C114.678 34.1941 115.248 33.5994 115.666 32.8289C116.085 32.0415 116.295 31.1286 116.295 30.09ZM124.757 25.7681C125.209 24.9807 125.879 24.3274 126.767 23.8081C127.672 23.2721 128.719 23.0041 129.908 23.0041C131.131 23.0041 132.237 23.2972 133.225 23.8835C134.23 24.4698 135.017 25.299 135.587 26.3711C136.156 27.4265 136.441 28.6577 136.441 30.0648C136.441 31.4552 136.156 32.6948 135.587 33.7837C135.017 34.8725 134.23 35.7185 133.225 36.3216C132.237 36.9246 131.131 37.2261 129.908 37.2261C128.735 37.2261 127.697 36.9665 126.792 36.4472C125.904 35.9111 125.226 35.2495 124.757 34.4621V43.5331H122.47V23.2302H124.757V25.7681ZM134.104 30.0648C134.104 29.0262 133.895 28.1217 133.476 27.3511C133.057 26.5805 132.488 25.9942 131.768 25.5922C131.064 25.1901 130.285 24.9891 129.431 24.9891C128.593 24.9891 127.814 25.1985 127.094 25.6173C126.39 26.0193 125.821 26.614 125.385 27.4013C124.966 28.1719 124.757 29.0681 124.757 30.09C124.757 31.1286 124.966 32.0415 125.385 32.8289C125.821 33.5994 126.39 34.1941 127.094 34.6129C127.814 35.0149 128.593 35.216 129.431 35.216C130.285 35.216 131.064 35.0149 131.768 34.6129C132.488 34.1941 133.057 33.5994 133.476 32.8289C133.895 32.0415 134.104 31.1202 134.104 30.0648ZM148.949 37L141.738 29.0095V37H139.451V19.4862H141.738V27.6024L148.974 19.4862H151.864L143.924 28.2557L151.939 37H148.949ZM156.78 25.4665C157.182 24.6792 157.751 24.0678 158.488 23.6322C159.242 23.1967 160.155 22.9789 161.227 22.9789V25.3409H160.624C158.061 25.3409 156.78 26.7313 156.78 29.512V37H154.493V23.2302H156.78V25.4665Z" fill="white"/>
<defs>
<filter id="filter0_dddddd_5_94" x="-105.631" y="-94.9074" width="279.902" height="246.144" filterUnits="userSpaceOnUse" color-interpolation-filters="sRGB">
<feFlood flood-opacity="0" result="BackgroundImageFix"/>
<feColorMatrix in="SourceAlpha" type="matrix" values="0 0 0 0 0 0 0 0 0 0 0 0 0 0 0 0 0 0 127 0" result="hardAlpha"/>
<feOffset/>
<feGaussianBlur stdDeviation="2.14793"/>
<feColorMatrix type="matrix" values="0 0 0 0 0.85098 0 0 0 0 0.85098 0 0 0 0 0.85098 0 0 0 1 0"/>
<feBlend mode="normal" in2="BackgroundImageFix" result="effect1_dropShadow_5_94"/>
<feColorMatrix in="SourceAlpha" type="matrix" values="0 0 0 0 0 0 0 0 0 0 0 0 0 0 0 0 0 0 127 0" result="hardAlpha"/>
<feOffset/>
<feGaussianBlur stdDeviation="4.29585"/>
<feColorMatrix type="matrix" values="0 0 0 0 0.85098 0 0 0 0 0.85098 0 0 0 0 0.85098 0 0 0 1 0"/>
<feBlend mode="normal" in2="effect1_dropShadow_5_94" result="effect2_dropShadow_5_94"/>
<feColorMatrix in="SourceAlpha" type="matrix" values="0 0 0 0 0 0 0 0 0 0 0 0 0 0 0 0 0 0 127 0" result="hardAlpha"/>
<feOffset/>
<feGaussianBlur stdDeviation="15.0355"/>
<feColorMatrix type="matrix" values="0 0 0 0 0.85098 0 0 0 0 0.85098 0 0 0 0 0.85098 0 0 0 1 0"/>
<feBlend mode="normal" in2="effect2_dropShadow_5_94" result="effect3_dropShadow_5_94"/>
<feColorMatrix in="SourceAlpha" type="matrix" values="0 0 0 0 0 0 0 0 0 0 0 0 0 0 0 0 0 0 127 0" result="hardAlpha"/>
<feOffset/>
<feGaussianBlur stdDeviation="30.071"/>
<feColorMatrix type="matrix" values="0 0 0 0 0.85098 0 0 0 0 0.85098 0 0 0 0 0.85098 0 0 0 1 0"/>
<feBlend mode="normal" in2="effect3_dropShadow_5_94" result="effect4_dropShadow_5_94"/>
<feColorMatrix in="SourceAlpha" type="matrix" values="0 0 0 0 0 0 0 0 0 0 0 0 0 0 0 0 0 0 127 0" result="hardAlpha"/>
<feOffset/>
<feGaussianBlur stdDeviation="51.5502"/>
<feColorMatrix type="matrix" values="0 0 0 0 0.85098 0 0 0 0 0.85098 0 0 0 0 0.85098 0 0 0 1 0"/>
<feBlend mode="normal" in2="effect4_dropShadow_5_94" result="effect5_dropShadow_5_94"/>
<feColorMatrix in="SourceAlpha" type="matrix" values="0 0 0 0 0 0 0 0 0 0 0 0 0 0 0 0 0 0 127 0" result="hardAlpha"/>
<feOffset/>
<feGaussianBlur stdDeviation="57.9268"/>
<feColorMatrix type="matrix" values="0 0 0 0 0.85098 0 0 0 0 0.85098 0 0 0 0 0.85098 0 0 0 1 0"/>
<feBlend mode="normal" in2="effect5_dropShadow_5_94" result="effect6_dropShadow_5_94"/>
<feBlend mode="normal" in="SourceGraphic" in2="effect6_dropShadow_5_94" result="shape"/>
</filter>
<linearGradient id="paint0_linear_5_94" x1="36.6367" y1="21.9444" x2="40.1123" y2="27.042" gradientUnits="userSpaceOnUse">
<stop stop-color="#C68801"/>
<stop offset="1" stop-color="#986901"/>
</linearGradient>
<linearGradient id="paint1_linear_5_94" x1="47.0636" y1="13.2143" x2="52.6246" y2="14.8362" gradientUnits="userSpaceOnUse">
<stop stop-color="#F7AB03"/>
<stop offset="1" stop-color="#C08402"/>
</linearGradient>
<linearGradient id="paint2_linear_5_94" x1="1.79187" y1="1.39162" x2="1.24188" y2="3.01025" gradientUnits="userSpaceOnUse">
<stop stop-color="#30BD99"/>
<stop offset="1" stop-color="#165746"/>
</linearGradient>
<linearGradient id="paint3_linear_5_94" x1="1.79187" y1="1.39162" x2="1.24188" y2="3.01025" gradientUnits="userSpaceOnUse">
<stop stop-color="#30BD99"/>
<stop offset="1" stop-color="#165746"/>
</linearGradient>
<linearGradient id="paint4_linear_5_94" x1="45.2098" y1="23.3347" x2="45.2098" y2="26.3469" gradientUnits="userSpaceOnUse">
<stop stop-color="#BF8301"/>
<stop offset="1" stop-color="#AB7600"/>
</linearGradient>
<linearGradient id="paint5_linear_5_94" x1="39.1855" y1="30.7493" x2="33.1611" y2="39.7859" gradientUnits="userSpaceOnUse">
<stop stop-color="#AB7600"/>
<stop offset="1" stop-color="#FDC54A"/>
</linearGradient>
<linearGradient id="paint6_linear_5_94" x1="35.3975" y1="12.5193" x2="35.3975" y2="41.3181" gradientUnits="userSpaceOnUse">
<stop stop-color="#FFC13A"/>
<stop offset="1" stop-color="#FFB71A"/>
</linearGradient>
<linearGradient id="paint7_linear_5_94" x1="1.79187" y1="1.39162" x2="1.24188" y2="3.01025" gradientUnits="userSpaceOnUse">
<stop stop-color="#30BD99"/>
<stop offset="1" stop-color="#165746"/>
</linearGradient>
<linearGradient id="paint8_linear_5_94" x1="1.79187" y1="1.39162" x2="1.24188" y2="3.01025" gradientUnits="userSpaceOnUse">
<stop stop-color="#30BD99"/>
<stop offset="1" stop-color="#165746"/>
</linearGradient>
</defs>
</svg>
